<?xml version="1.0" encoding="UTF-8" ?>
<!DOCTYPE svg PUBLIC "-//W3C//DTD SVG 1.1//EN" "http://www.w3.org/Graphics/SVG/1.1/DTD/svg11.dtd">
<svg width="128pt" height="128pt" viewBox="0 0 128 128" version="1.1" xmlns="http://www.w3.org/2000/svg">
<path fill="#ffffff" d=" M 0.00 0.00 L 128.00 0.00 L 128.00 128.00 L 0.00 128.00 L 0.00 0.00 Z" />
<path fill="#1874e7" d=" M 57.81 9.23 C 71.64 8.96 85.28 15.28 94.89 25.10 C 102.80 33.04 107.62 43.83 108.65 54.96 C 109.43 67.43 105.43 80.51 96.33 89.34 C 92.02 94.18 86.39 97.41 80.99 100.84 C 87.50 101.26 93.55 98.34 98.91 94.95 C 102.44 92.73 105.11 89.44 108.49 87.02 C 96.40 104.93 69.53 111.96 50.97 100.07 C 36.96 92.27 29.45 73.92 35.77 58.84 C 40.01 46.68 54.32 39.21 66.66 43.27 C 74.98 45.91 81.43 55.02 79.01 63.84 C 77.88 69.53 71.82 73.69 66.13 72.30 C 63.69 71.02 60.88 69.10 60.51 66.15 C 60.82 64.20 63.47 64.21 64.89 63.35 C 64.23 62.39 63.60 61.41 62.99 60.43 C 60.34 60.76 57.06 61.07 55.99 63.99 C 52.36 71.42 59.33 80.01 66.99 80.29 C 76.03 81.28 84.67 74.54 86.88 65.91 C 90.24 53.54 82.73 39.70 70.86 35.18 C 61.37 31.71 50.11 32.04 41.35 37.37 C 32.74 42.89 25.73 51.45 23.56 61.61 C 21.40 69.71 22.40 78.18 24.13 86.26 C 21.79 82.64 21.51 78.22 21.01 74.06 C 19.73 61.23 24.76 47.99 34.18 39.21 C 39.70 33.73 46.90 30.21 54.40 28.38 C 55.99 27.94 57.74 27.73 59.03 26.61 C 49.72 24.19 39.90 27.14 31.80 31.84 C 20.08 39.13 12.11 51.57 9.11 64.93 C 10.85 49.59 20.16 35.45 33.10 27.17 C 45.67 19.09 62.14 17.37 76.02 23.00 C 84.30 25.83 90.48 32.24 96.96 37.80 C 93.37 26.05 83.13 17.44 72.00 13.02 C 67.50 10.97 62.60 10.26 57.81 9.23 Z" />
<path fill="#0e0e0f" d=" M 41.35 37.37 C 50.11 32.04 61.37 31.71 70.86 35.18 C 82.73 39.70 90.24 53.54 86.88 65.91 C 84.67 74.54 76.03 81.28 66.99 80.29 C 59.33 80.01 52.36 71.42 55.99 63.99 C 57.06 61.07 60.34 60.76 62.99 60.43 C 63.60 61.41 64.23 62.39 64.89 63.35 C 63.47 64.21 60.82 64.20 60.51 66.15 C 60.88 69.10 63.69 71.02 66.13 72.30 C 71.82 73.69 77.88 69.53 79.01 63.84 C 81.43 55.02 74.98 45.91 66.66 43.27 C 54.32 39.21 40.01 46.68 35.77 58.84 C 29.45 73.92 36.96 92.27 50.97 100.07 C 69.53 111.96 96.40 104.93 108.49 87.02 C 108.72 86.69 109.20 86.02 109.43 85.68 C 109.49 85.59 109.62 85.41 109.69 85.32 C 117.67 74.83 120.71 61.25 120.50 48.29 C 121.10 54.90 121.86 61.69 120.07 68.19 C 117.46 78.13 112.58 87.76 104.86 94.70 C 100.21 98.26 95.51 101.90 90.07 104.16 C 79.39 108.63 66.94 109.11 56.12 104.85 C 46.92 100.83 38.42 94.05 34.55 84.54 C 28.56 71.78 31.51 54.70 43.00 45.99 C 50.21 40.22 60.64 37.95 69.28 41.74 C 77.06 45.13 83.13 53.29 82.07 62.04 C 82.18 67.00 78.67 70.75 76.00 74.53 C 79.03 72.86 82.00 70.66 83.33 67.33 C 87.42 58.19 83.80 46.97 76.09 40.92 C 64.04 31.65 45.16 33.86 35.03 45.02 C 28.73 51.40 24.95 60.11 24.37 69.03 C 23.09 88.27 35.71 107.80 54.00 114.11 C 60.11 116.65 66.46 118.77 73.17 118.74 C 69.61 120.20 65.71 119.07 62.05 118.70 C 55.88 118.04 50.14 115.36 44.96 112.07 C 38.46 107.81 32.57 102.43 28.63 95.68 C 28.57 95.58 28.45 95.39 28.39 95.29 C 26.64 92.45 24.93 89.52 24.13 86.26 C 22.40 78.18 21.40 69.71 23.56 61.61 C 25.73 51.45 32.74 42.89 41.35 37.37 Z" />
<path fill="#1874e7" d=" M 35.03 45.02 C 45.16 33.86 64.04 31.65 76.09 40.92 C 83.80 46.97 87.42 58.19 83.33 67.33 C 82.00 70.66 79.03 72.86 76.00 74.53 C 78.67 70.75 82.18 67.00 82.07 62.04 C 83.13 53.29 77.06 45.13 69.28 41.74 C 60.64 37.95 50.21 40.22 43.00 45.99 C 31.51 54.70 28.56 71.78 34.55 84.54 C 38.42 94.05 46.92 100.83 56.12 104.85 C 66.94 109.11 79.39 108.63 90.07 104.16 C 95.51 101.90 100.21 98.26 104.86 94.70 C 102.99 97.84 99.87 99.86 96.91 101.85 C 86.74 108.54 74.04 111.52 62.00 109.31 C 53.68 108.27 46.37 103.92 38.92 100.40 C 42.52 106.40 48.30 110.34 54.00 114.11 C 35.71 107.80 23.09 88.27 24.37 69.03 C 24.95 60.11 28.73 51.40 35.03 45.02 Z" />
<path fill="#2585ee" d=" M 62.90 46.72 C 66.34 46.82 69.46 48.68 70.55 52.06 C 69.23 52.62 67.85 53.97 66.48 52.73 C 65.04 51.97 65.54 50.05 65.25 48.72 C 64.46 48.06 63.68 47.39 62.90 46.72 Z" />
<path fill="#0f63db" d=" M 51.67 52.78 C 55.88 52.41 60.05 51.77 64.23 51.15 C 62.22 52.74 59.67 53.27 57.34 54.21 C 56.69 55.58 56.56 57.57 54.88 58.08 C 53.44 58.59 51.92 58.82 50.41 59.08 C 50.45 56.99 49.42 54.07 51.67 52.78 Z" />
<path fill="#2585ee" d=" M 67.92 66.79 C 70.58 65.80 73.26 64.80 75.33 62.77 C 75.07 64.18 75.72 66.32 73.98 67.01 C 71.41 68.58 68.61 69.76 65.64 70.33 C 65.60 68.75 66.31 67.26 67.92 66.79 Z" />
<path fill="#2585ee" d=" M 91.26 79.85 C 93.04 78.67 95.19 79.53 97.08 79.89 C 95.59 84.08 90.88 84.40 87.69 86.68 C 83.81 89.32 79.30 90.72 74.90 92.20 C 74.20 91.57 73.52 90.92 72.85 90.26 C 73.20 90.09 73.91 89.77 74.27 89.60 C 78.01 87.91 81.58 85.84 85.17 83.85 C 87.30 82.68 89.18 81.11 91.26 79.85 Z" />
<path fill="#2585ee" d=" M 48.74 81.01 C 51.09 81.66 53.30 82.75 54.99 84.55 C 54.54 84.81 53.66 85.33 53.21 85.59 C 55.47 88.00 57.55 90.72 60.47 92.35 C 65.22 93.81 70.45 94.85 75.28 93.18 C 78.01 92.29 80.87 92.72 83.67 92.56 C 85.40 91.62 86.72 90.13 88.18 88.84 C 89.00 89.31 89.83 89.77 90.67 90.22 C 89.00 94.41 84.03 95.23 80.05 95.60 C 75.82 95.86 71.35 93.83 67.37 95.98 C 68.91 96.62 70.46 97.21 72.05 97.71 C 68.92 97.63 66.14 98.94 63.66 100.73 C 61.70 102.22 60.39 99.27 59.00 98.28 C 60.05 97.81 61.09 97.34 62.14 96.87 C 62.19 95.99 62.19 95.11 62.25 94.23 C 57.65 93.53 52.99 92.31 49.08 89.69 C 47.45 86.92 51.57 87.56 53.12 87.86 C 51.39 85.76 49.90 83.47 48.74 81.01 Z" />
<path fill="#0f63db" d=" M 77.65 83.66 C 79.65 82.52 81.85 81.84 84.01 81.08 C 84.40 82.00 84.78 82.92 85.17 83.85 C 81.58 85.84 78.01 87.91 74.27 89.60 C 71.99 89.74 69.74 89.30 67.64 88.45 C 69.90 88.05 72.21 87.90 74.46 87.40 C 75.75 86.36 76.09 84.44 77.65 83.66 Z" />
<path fill="#2585ee" d=" M 109.43 85.68 C 109.49 85.59 109.62 85.41 109.69 85.32 C 109.62 85.41 109.49 85.59 109.43 85.68 Z" />
<path fill="#67a8ef" d=" M 28.39 95.29 C 28.45 95.39 28.57 95.58 28.63 95.68 C 28.57 95.58 28.45 95.39 28.39 95.29 Z" />
</svg>
